<?xml version="1.0" encoding="UTF-8"?>
<!DOCTYPE svg PUBLIC "-//W3C//DTD SVG 1.1//EN" "http://www.w3.org/Graphics/SVG/1.1/DTD/svg11.dtd">
<svg xmlns="http://www.w3.org/2000/svg" xml:space="preserve" width="202.311mm" height="202.311mm" version="1.1" style="shape-rendering:geometricPrecision; text-rendering:geometricPrecision; image-rendering:optimizeQuality; fill-rule:evenodd; clip-rule:evenodd"
viewBox="0 0 19756.19 19756.19"
 xmlns:xlink="http://www.w3.org/1999/xlink"
 xmlns:xodm="http://www.axuno.net/logo/odm/2003">
 <defs>
  <style type="text/css">
   <![CDATA[
    .str0 {stroke:#2B2A29;stroke-width:19.53;stroke-miterlimit:22.9256}
    .str1 {stroke:#124170;stroke-width:19.53;stroke-miterlimit:10}
    .fil0 {fill:#CCE8FF}
    .fil1 {fill:#013F70;fill-rule:nonzero}
    .fil2 {fill:#018DFF;fill-rule:nonzero}
    .fil3 {fill:#01DF02;fill-rule:nonzero}
    .fil4 {fill:#FEFEFE;fill-rule:nonzero}
   ]]>
  </style>
 </defs>
 <g id="Layer_x0020_1">
  <metadata id="AxunoID_0Layer"/>
  <circle class="fil0 str0" cx="9842.81" cy="9923.15" r="9653.66"/>
  <path class="fil1" d="M9205.87 8511.95c674.74,-192.73 1065.48,-895.98 872.75,-1570.72 -192.75,-674.74 -895.98,-1065.49 -1570.75,-872.73 -674.74,192.76 -1065.48,895.98 -872.73,1570.72 192.76,674.74 895.99,1065.49 1570.73,872.73z"/>
  <path class="fil2" d="M2481.81 15687.56c0,0 1305.89,1905.92 4552.99,1270.6 3247.11,-635.3 3600.04,-3352.96 3600.04,-3352.96 0,0 847.07,3776.5 -3529.47,5329.44 0,0 -2294.13,0.02 -4623.55,-3247.08z"/>
  <path class="fil3" d="M10917.2 536.36c0,0 2380.62,1215.36 2230.26,3470.68 0,0 576.36,-2205.19 175.4,-2869.26 0,0 -1353.18,-651.53 -2405.67,-601.41z"/>
  <path class="fil1 str1" d="M13637.01 1530.95c0,0 362.13,5718.62 -6383.25,7606.2 -287.75,51.69 -2658.57,427.33 -3503.46,-581.9 0,0 -43.8,655.92 550.13,1160.39 194.73,207.06 1034.61,873.73 3712.94,434.53 945.28,-155.01 1842.62,102.07 2894.45,2702.82 25.21,62.39 49.28,123.83 72.48,184.46 300.99,1226.6 289.86,2774.67 -976.85,4085.27 -1307.64,1352.99 -2384.22,1690.84 -2976.49,1835.93 270.87,-5.63 526.24,63.7 767.41,57.74 1360.27,-94.03 5167.28,-1237.52 5992.99,-5445.79 720.88,-3674.11 -1279.81,-6004.3 -1279.81,-6004.3 3007.09,-3394.78 1129.43,-6035.35 1129.46,-6035.35z"/>
  <path class="fil2" d="M3729.18 8392.02c438.11,612.29 1408.4,810.56 2213.17,862.61 -673.36,-174.96 -1709.19,-865.19 -1561.91,-3476.99 0,0 -705.54,1472.67 -655.47,2606.57 0.05,1.28 4.21,7.82 4.21,7.82z"/>
  <path class="fil3" d="M2322.37 15534.07c-10.66,-14.18 -15.98,-21.92 -15.98,-21.92 5.33,7.42 10.64,14.54 15.98,21.92 157.54,209.7 1495.85,1843.69 4537.02,1248.67 1488.8,-291.28 2368.9,-1020.32 2885.81,-1724.48 4.46,-8.25 6.75,-12.71 6.75,-12.71 0,0 -839.48,852.01 -3245.15,877.08 -4286.72,44.65 -5788.65,-3508.27 -5788.65,-3508.27 100.24,1403.3 2029.79,3708.74 2029.79,3708.74 15.66,8.24 31.14,16.18 46.74,24.31 -156.8,-190.33 -314.44,-394.23 -472.32,-613.33z"/>
  <path class="fil1 str1" d="M9878.13 510.95c-1264.68,0 -2491.38,247.63 -3646.05,736.01 -1115.4,471.79 -2117.22,1147.22 -2977.57,2007.55 -860.31,860.35 -1535.77,1862.13 -2007.55,2977.54 -488.39,1154.68 -736.02,2381.36 -736.02,3646.04 0,1264.68 247.63,2491.38 736.02,3646.04 471.78,1115.41 1147.23,2117.22 2007.55,2977.55 860.35,860.35 1862.17,1535.78 2977.57,2007.55 1154.68,488.37 2381.37,736.01 3646.05,736.01 1264.65,0 2491.37,-247.64 3646.03,-736.01 1115.41,-471.77 2117.2,-1147.2 2977.52,-2007.55 860.36,-860.33 1535.8,-1862.14 2007.56,-2977.55 488.39,-1154.67 736.01,-2381.36 736.01,-3646.04 0,-1264.68 -247.62,-2491.37 -736.01,-3646.04 -471.76,-1115.41 -1147.2,-2117.19 -2007.56,-2977.54 -860.32,-860.33 -1862.11,-1535.77 -2977.52,-2007.55 -1154.67,-488.38 -2381.38,-736.01 -3646.03,-736.01zm0 19235.48c-1332.09,0 -2624.52,-260.94 -3841.29,-775.61 -1175.16,-497.04 -2230.48,-1208.55 -3136.68,-2114.76 -906.22,-906.21 -1617.74,-1961.54 -2114.79,-3136.69 -514.64,-1216.76 -775.61,-2509.16 -775.61,-3841.28 0,-1332.09 260.97,-2624.48 775.61,-3841.28 497.04,-1175.14 1208.57,-2230.48 2114.79,-3136.69 906.21,-906.21 1961.52,-1617.71 3136.68,-2114.75 1216.77,-514.67 2509.2,-775.61 3841.29,-775.61 1332.11,0 2624.48,260.94 3841.27,775.61 1175.14,497.04 2230.49,1208.54 3136.69,2114.75 906.21,906.22 1617.69,1961.55 2114.74,3136.69 514.66,1216.8 775.6,2509.19 775.6,3841.28 0,1332.12 -260.94,2624.52 -775.6,3841.28 -497.05,1175.15 -1208.53,2230.49 -2114.74,3136.69 -906.21,906.19 -1961.55,1617.72 -3136.69,2114.76 -1216.79,514.67 -2509.16,775.61 -3841.27,775.61z"/>
  <path class="fil2" d="M10071.83 3982.07c932.38,0 1688.19,-755.83 1688.19,-1688.2 0,-932.37 -755.81,-1688.2 -1688.19,-1688.2 -932.37,0 -1688.17,755.83 -1688.17,1688.2 0,932.37 755.8,1688.2 1688.17,1688.2z"/>
  <path class="fil4" d="M9959.92 3693.19c-841.98,0 -1524.56,-682.52 -1524.56,-1524.61 0,-842.06 682.58,-1524.62 1524.56,-1524.62 842.04,0 1524.67,682.56 1524.67,1524.62 0,842.09 -682.63,1524.61 -1524.67,1524.61zm122.04 -3110.27c-943.07,0 -1707.66,764.52 -1707.66,1707.62 0,943.1 764.59,1707.61 1707.66,1707.61 943,0 1707.62,-764.51 1707.62,-1707.61 0,-943.1 -764.62,-1707.62 -1707.62,-1707.62z"/>
  <path class="fil4" d="M11342.35 3070.03c0,0 -271.44,-367.32 -606.88,-590.89 -335.41,-223.66 -654.81,-255.59 -654.81,-255.59 0,0 -31.92,-223.61 -16.04,-750.62 0,0 958.26,-80.01 1261.83,718.68 0,0 -250.52,-777.44 -1241.18,-873.84 92.85,-403.35 474.54,-531.66 474.54,-531.66l-271.44 -111.86c-543.01,479.18 -303.54,1581.22 -303.54,1581.22 -257.53,264.05 -549.75,390.62 -804.89,449.47 -229.97,-482.86 -73.55,-1391.76 -73.55,-1391.76 -279.06,530.3 -94.9,1243.26 -44,1414.94 -304.39,49.01 -531.06,6.51 -531.06,6.51l95.92 159.69c0,0 63.88,32 575.01,-95.79 511.18,-127.73 798.51,-447.24 798.51,-447.24 0,0 351.46,31.98 638.88,207.65 74.4,45.4 152.79,113.26 228.41,188.89l-20.69 -13.2c-303.35,638.88 -1309.71,638.88 -1309.71,638.88 762.06,138.6 1319.01,-359.32 1453.49,-493.89 161.88,184.1 287.38,366.05 287.38,366.05l63.82 -175.66z"/>
 </g>
</svg>