<?xml version="1.0" encoding="UTF-8"?>
<!DOCTYPE svg PUBLIC "-//W3C//DTD SVG 1.1//EN" "http://www.w3.org/Graphics/SVG/1.1/DTD/svg11.dtd">
<svg xmlns="http://www.w3.org/2000/svg" xml:space="preserve" width="199.108mm" height="200mm" version="1.1" style="shape-rendering:geometricPrecision; text-rendering:geometricPrecision; image-rendering:optimizeQuality; fill-rule:evenodd; clip-rule:evenodd"
viewBox="0 0 9952.9 9997.49"
 xmlns:xlink="http://www.w3.org/1999/xlink"
 xmlns:xodm="http://www.corel.com/coreldraw/odm/2003">
 <defs>
  <style type="text/css">
   <![CDATA[
    .fil0 {fill:#355DA3}
   ]]>
  </style>
 </defs>
 <g id="Ebene_x0020_1">
  <metadata id="CorelCorpID_0Corel-Layer"/>
  <g id="_2646174420048">
   <path class="fil0" d="M2683.37 5113.89c30.98,109.1 501.52,798.86 595.35,936.45 102.98,151.03 217.02,298.86 326.51,444.81 52.8,70.39 291.6,398.95 338.34,433l906.29 -603.78c199.85,-144.61 725.45,-499.77 873.84,-633.16 -22.84,-65.99 -1111.97,-1605.01 -1258.67,-1826.66 -154.27,89.88 -305.05,194.07 -454.22,295.38 -296.34,201.25 -608.67,410.87 -894.41,626.53 -136.24,102.82 -293.77,235.1 -433.03,327.43z"/>
   <path class="fil0" d="M6107.98 5752.35c61.68,66.45 210.08,308.9 264.51,398.19 173.28,284.23 329.01,518.71 503.82,821.57 39.89,69.11 74.52,142.19 115.42,210.5 38.34,64.03 74.16,165.84 115.68,221.1 84.53,-33.07 722.57,-548.88 820.48,-641.21 87.97,-82.95 719.28,-670.41 728.98,-737 -23.68,-132.53 -366.1,-736.05 -456.85,-876.83l-399.85 -599.62c-40.92,-57.45 -93.93,-158.93 -141.98,-194.75 -49.8,35.54 -287.73,293.11 -365.84,371.22 -105.2,105.21 -268.05,268.02 -382.95,355.79l-399.17 339.58c-128.29,114.24 -284.18,226.3 -402.25,331.47z"/>
   <path class="fil0" d="M2542.13 8079.73c33.4,-21.85 222.7,-227.88 268.87,-274.32 145.32,-146.17 773.24,-649.8 926.16,-725.15l-332.14 -428.34c-263.98,-352.16 -385.82,-524.89 -630.48,-890.46 -49.24,-73.57 -100.89,-158.03 -146.14,-234.1 -39.47,-66.36 -99.27,-179.94 -143.05,-237.18 -63.94,17.09 -598.2,527.61 -684.68,614.06 -107.01,106.98 -213.71,227.04 -307.72,344.11 -250.14,311.53 -194.54,259.3 -111.09,384.31 174.2,260.94 360.17,503.44 555.44,748.22 80.7,101.16 209.46,267.35 297.84,353.98l306.98 344.85z"/>
   <path class="fil0" d="M1159.99 6273.89c24.83,-12.93 225.4,-286.59 263.07,-334.44 155.04,-196.97 410.01,-438.84 600.22,-605.67 37.95,-33.29 317.02,-275.45 323.07,-286.34 -29.78,-96.33 -157.09,-301.49 -205.99,-411.72 -128.25,-289.12 -273.45,-595.28 -358.74,-901.47 -19.1,-68.58 -115.39,-471.47 -134.7,-495.39 -137.55,72.42 -529.04,436.7 -661.02,568.68 -89.63,89.63 -547.96,600.1 -544,693.02 7.77,182.47 208.14,773.56 289.72,957.27 51.03,114.92 367.61,777.73 428.38,816.08z"/>
   <path class="fil0" d="M3758.88 1919.93c30.78,67.16 47.67,145.79 76.04,217.29 169.09,426.21 234.52,579.77 480.08,986.54 68.82,114.01 170.09,257.8 226.08,371.43 183.13,-90.06 1459.71,-997.58 1553.53,-1140.7 -46.61,-90.97 -159.27,-209.5 -221.75,-299.71l-432.2 -632.45c-72.29,-111.69 -124.61,-233.93 -193.42,-338.91 -85.47,65.45 -977.68,560.6 -1111.75,626.46 -109,53.53 -276.85,145.29 -376.59,210.06z"/>
   <path class="fil0" d="M6412.45 2400.73l934.92 1167.07c102.05,125.74 205.91,278.39 311.63,394.53 32.3,-73.08 180.18,-246.32 236.81,-328.11 164.58,-237.65 307.44,-473.62 400.17,-751.4 20.16,-60.39 53.2,-159.9 64.21,-220.48 10.22,-56.24 -71,-129.48 -111.73,-169.43 -91.04,-89.29 -188.73,-205.87 -277.9,-287.02 -148.68,-135.31 -816.53,-804.22 -882.57,-834.47 -58.7,88.17 -66.08,280 -282.5,564.11 -63.09,82.82 -123.05,155.25 -187.99,235.7 -41.37,51.24 -184.27,185.97 -205.05,229.5z"/>
   <path class="fil0" d="M2715.96 8253.54c61.43,90.11 990.95,983.19 1131.83,1103.68 10.07,-2.36 506.05,-302.15 567.55,-338.58 118.34,-70.11 516.62,-265.7 582.67,-331.21 -137.38,-190.11 -378.38,-539.29 -530.19,-708.28 -106.64,-118.71 -483.57,-614.83 -559.7,-689.64 -123.87,24.08 -1053.03,751.39 -1192.17,964.03z"/>
   <path class="fil0" d="M4399.85 7167.16c8.91,33.32 379.55,487.59 436.06,563.41 140.52,188.57 290.52,378.33 422.19,577.29 192.45,-99.33 1168.58,-662.22 1345.51,-813.19 -36.03,-52.51 -56.25,-114.62 -89.9,-170.83 -32.38,-54.08 -64.94,-112.92 -93.13,-167.61 -53.96,-104.65 -133.78,-221.91 -196.11,-325.35l-412.33 -641.46c-219.15,168.36 -474.36,345.88 -699.57,495.46 -94.13,62.52 -683.56,440.61 -712.73,482.29z"/>
   <path class="fil0" d="M2107.53 3158.46c22.04,188.81 153.04,577.66 231.21,757.4 59.13,135.97 244.09,580.43 325.26,672.09 37.86,-15.58 271.84,-209.86 336.58,-254.08 118.97,-81.27 227.82,-172.51 348.88,-248.63l714.79 -482.59c-235.18,-376.7 -511.42,-857.96 -609.55,-1269.89 -73.42,19.95 -587.3,332.27 -691.78,394.61 -136.73,81.57 -556.4,343.69 -655.39,431.1z"/>
   <path class="fil0" d="M1814.26 2854.22c38.42,-10.43 345.39,-223.99 408.35,-265.2 135.14,-88.45 277.65,-171.56 417.91,-255.64 118.48,-71.02 823.67,-458.05 857.63,-489.49 -3.8,-44.68 -16.5,-93.08 -21.76,-141.2 -5.03,-45.98 -9.14,-103.52 -15.49,-147.47 -44.07,-304.96 37.48,-574.26 167.62,-830.31 -420.07,131.76 -1156.92,461.39 -1554.32,683.63 -78.69,44.01 -67.78,62.56 -103.26,146.61 -108.8,257.78 -179.06,540.07 -178.41,821.07 0.49,215.43 21.47,319.76 21.73,478.01z"/>
   <path class="fil0" d="M5300.62 8743.35c88.23,117.59 243.4,443.81 281.36,598.61 28.6,116.6 16.56,161.84 25.62,278.57 79.48,-1.04 691.94,-254.46 828.52,-308.46 267.6,-105.8 519.54,-255.12 781.88,-369.69 77.18,-266.78 -40.51,-668.18 -130.72,-921.03 -27.48,-77.02 -84.3,-193.44 -101.83,-267.54l-830.39 505.87c-82.92,50.21 -819.05,450.75 -854.44,483.67z"/>
   <path class="fil0" d="M411.34 4219.05c158.45,-202.77 267.76,-376.38 455.05,-563.63 176.83,-176.79 351.06,-333.43 545.91,-486.16 270.83,-212.27 197.27,-92.61 173.78,-521.41 -5,-91.18 6.63,-164.6 10.93,-249.89 14.77,-292.78 75.79,-559.74 206.38,-825.68 -110.2,35.28 -495.1,331.86 -603.74,417.46 -184.24,145.17 -367.42,337.22 -507.6,524.46 -179.29,239.46 -312.59,879.74 -311.82,1219.98 0.2,85.33 1.69,431.08 31.11,484.87z"/>
   <path class="fil0" d="M9147.34 7449.62c114.12,-91.9 331.56,-446.21 416.12,-583.35 134.3,-217.84 224.99,-470.33 295.04,-715.3 87.25,-305.16 116.52,-585.2 77.3,-902.1 -15.22,-122.93 -163.11,-694.34 -236.01,-765.84 -8.82,9.07 -101.47,325.78 -116.51,371.52 -111.62,339.5 -318.5,688.89 -522.66,976.54 -225.34,317.51 -133.39,106.23 12.85,703.8 70.52,288.14 82.5,384.16 84.67,664.73 0.68,87.07 -14.11,168.59 -10.79,250z"/>
   <path class="fil0" d="M2270.54 8970.56c-5.41,-197.81 -100.06,-240.28 83.12,-601.3 23.68,-46.65 76.72,-116.26 91.74,-157.69l-329.89 -357.04c-105.12,-108.92 -224.43,-257.61 -319.53,-375.76l-452.16 -590.77c-41.16,-55.87 -99.48,-159.09 -140.74,-205.92 -110.52,127.74 -226.3,544.5 -225.41,713.15 2.32,440.11 27.16,353.13 290.17,665.99 145.43,172.99 312.83,323.86 478.66,477.36 85.91,79.53 170.39,147.17 255.24,222.76 47.43,42.26 220.32,185.52 268.8,209.21z"/>
   <path class="fil0" d="M76.05 5570.18c0,511.35 75.84,672.9 276.17,1157.85 79.59,192.65 351.98,665.32 478.88,804.03 20.58,-71.48 -83.66,-388.26 102.85,-810.65 85.61,-193.88 146.99,-232.92 88.13,-326.3 -225.56,-357.9 -482.29,-908.08 -596.16,-1316.03 -18.33,-65.69 -79.01,-345.07 -99.87,-378.13 -25.71,30.54 -74.27,146.99 -88.72,183.14 -87.45,218.72 -161.28,447.67 -161.28,686.1z"/>
   <path class="fil0" d="M8321.69 1485.38c126.35,250.46 218.71,419.83 248.32,707.69 4.93,47.9 15.3,181.89 12.62,226.5 -11.54,191.58 -60.64,156.42 116.36,339.82 169.6,175.74 400.51,470.37 544.61,661.27 66.47,88.06 134.39,188.48 194.98,283.03 51.6,80.53 131.3,245.67 183.91,299.24 27.48,-38.15 17.6,-393.23 13.78,-464.35 -17.99,-334.39 -169.23,-813.97 -356.4,-1088.49 -121.66,-178.43 -284.66,-361.79 -439.43,-516.58 -67.78,-67.78 -461.82,-431.89 -518.75,-448.13z"/>
   <path class="fil0" d="M5410.19 3875.42c10.16,37.61 564.84,827.56 617.12,888.72 128.2,-82.27 661.21,-547.13 752.9,-683.48 -84.05,-107.46 -552.48,-729.63 -609.55,-770.15l-371.52 291.17c-46.86,31.91 -376.67,256.46 -388.94,273.74z"/>
   <path class="fil0" d="M3976.16 9470.29c33.66,51.44 163.72,169.15 214.56,219.99 42.15,42.14 120.26,121.54 153.13,172.8 18.74,29.23 20.14,47.95 36.21,71.22 111.9,5.09 1003.1,-203.68 1040.98,-257.6 0,-198.32 -30.37,-285.35 -107.37,-457.54 -19.94,-44.6 -163.36,-317.78 -207.32,-367.7 -70.21,17.57 -209.95,104.23 -290.19,144.31 -226.1,112.94 -637.82,342.05 -840,474.52z"/>
   <path class="fil0" d="M3599.17 9771.02c-18.49,-98.72 -57.02,-77.64 20.28,-190.28 27.29,-39.76 112.46,-111.49 122.99,-140.04l-567.52 -516.29c-52.77,-53.85 -539.73,-522.69 -558.73,-532.23 -91.7,58.96 -195.18,365.38 -194.18,480.87 2.27,266.24 89.58,283.02 283.09,412.55 145.56,97.43 755.9,463.83 894.07,485.42z"/>
   <path class="fil0" d="M4465.03 116.53c-272.88,0.23 -1163.7,173.93 -1399.33,317.16 -183.99,111.84 -352.81,194.41 -515.62,342.63 -94.05,85.62 -368.43,351.6 -399.05,459.19 637.79,-311.2 846.77,-398.2 1508.9,-631.28 146.78,-51.67 175.44,-203.04 495.45,-362.79 70.05,-34.97 264.74,-93.55 309.64,-124.91z"/>
   <path class="fil0" d="M6931.12 9589.8c136.96,-13.46 730.52,-351.99 897.12,-471.73 416.85,-299.6 955.55,-719.03 1080.1,-1233.9 -56.17,37.64 -182.09,162.09 -241.63,214.65 -428.86,378.66 -599.97,474.54 -1074.95,761.03 -247.36,149.2 -145.59,70.67 -229.57,237.58 -81.72,162.42 -152.23,276.44 -295.96,388.46 -28.53,22.23 -119.89,83.67 -135.11,103.9z"/>
   <path class="fil0" d="M7782.49 8140.79c93.98,-1.19 519.58,-347.06 606.96,-427.86 168.43,-155.77 151.38,-131.7 138.72,-382.88 -3.73,-74.1 -70.63,-362.63 -110.26,-419.54 -49.87,33.55 -90.01,81.28 -127.21,127.9 -82.06,102.83 -445.13,386.88 -574.5,479.3 -111.9,79.94 -24.52,54.31 46.92,370.99 22.13,98.1 3.54,173.76 19.37,252.1z"/>
   <path class="fil0" d="M5217.1 9987.57c78.24,13.17 532.79,-58.16 632.17,-78.19 196.64,-39.64 380.28,-84.27 577.54,-139.48 295.14,-82.58 681.45,-370.95 754.18,-679.85 -113.54,65.57 -355.74,162.09 -488.76,228.25 -140.32,69.79 -358.5,154 -512.04,204.97 -177.14,58.82 -355.4,125.16 -535.29,181.73 -83.61,26.29 -52.3,9.05 -95.46,78.36 -99.84,160.38 -254.36,170.17 -332.35,204.19z"/>
   <path class="fil0" d="M5340.65 842.97c204.33,-122.41 511.84,-327.74 612.49,-553.64 -18.5,-27.42 -50.67,-57.81 -72.94,-88.75 -30.2,-41.95 -37.92,-73.73 -56.15,-106.05 -78.16,8.55 -204.54,40 -287.81,61.14 -126.21,32.04 -146.98,11.88 -228.56,129.94 -108.06,156.39 -40.89,396.66 32.98,557.36z"/>
   <path class="fil0" d="M4812.67 627.13c-118.35,10.54 -434.14,124.95 -564.88,163 -53.73,15.64 -82.5,22.35 -109.29,75.4 -70.33,139.26 -89.28,355.97 -46.21,470.29 25.37,4.05 318.23,-157.56 357.29,-180.94 83.73,-50.14 299.61,-146.3 360.2,-203.9 -10.9,-95.11 -69.11,-183.94 2.89,-323.85z"/>
   <path class="fil0" d="M912.56 2126.34c62.57,-41.37 296.13,-292.51 449.75,-397.62 169.78,-116.17 329.56,-228.16 510.1,-337.28 55.14,-33.33 135.56,-179.67 184.24,-239.45 120.92,-148.5 271.7,-307.63 424.94,-422.44 69.69,-52.21 199.79,-127.98 256.09,-178.46 -82.55,7.85 -448.65,245.03 -541.03,306.35 -260.95,173.23 -684.32,522.72 -907.09,787.67 -72.3,86 -354.9,403.53 -377.01,481.23z"/>
   <path class="fil0" d="M-0 5287.72c20.03,-28.76 42.83,-204.34 55.02,-260.04 38.59,-176.31 101.41,-304.85 166.84,-463.26 61.38,-148.58 64.11,-71.53 50.35,-244.19 -20.71,-259.82 -20.49,-629.62 27.27,-894.94 14.47,-80.37 52.61,-194.59 59.04,-266.88 -106.15,131.25 -243.6,769.54 -281.67,956.81 -17.66,86.88 -26,178.79 -38.08,266.11 -29.31,211.95 -38.76,380.37 -38.76,591.34 0,105.02 0,210.04 0,315.05z"/>
   <path class="fil0" d="M5996.83 149.13c40.61,150.47 104.43,174.18 198.42,268.72l746.73 654.7c0,-412.46 -258.71,-651.93 -606.82,-794.62 -104.58,-42.87 -229.43,-103.11 -338.34,-128.8z"/>
   <path class="fil0" d="M3976.16 496.77c52.38,-4.37 134.87,-34.48 188.58,-50.43 62.58,-18.58 127.74,-37.91 192.93,-56.93l1172.01 -316.33c-213.83,-50.76 -686.47,0.42 -911.3,66.45 -309.97,91.03 -397.73,140.99 -642.23,357.25z"/>
   <path class="fil0" d="M2520.4 9329.06c-21.21,-32.31 -123.67,-148.41 -154.57,-182.21l-565.81 -455.39c-122.07,-102.57 -244.87,-213.59 -357.85,-326.57l-334.06 -350.36c44.28,187.52 447.51,624.16 606.76,751.22l385.02 299.4c68.33,51.52 350.99,245.12 420.51,263.91z"/>
   <path class="fil0" d="M4280.4 9945.88c-68.67,-115.04 -300,-309.65 -412.41,-401.67 -101.58,83.86 -267.05,212.23 -62.48,303.14 60.19,26.75 410.73,103.07 474.89,98.53z"/>
   <path class="fil0" d="M4455.08 9962.01c83.23,41.43 420.44,40.91 528.6,26.93 165.3,-21.38 295.4,-55.8 392.58,-201.19l-665.93 145.1c-86.88,13.37 -165.94,18.99 -255.24,29.16z"/>
   <path class="fil0" d="M8973.52 8025.4c39.69,-28.19 260.62,-368.5 304.19,-434.55 65.28,-98.96 225.3,-386.63 249.87,-488.87l-311.67 427.07c-69.74,85.41 -106.36,124.86 -140.54,228.83l-101.84 267.53z"/>
   <path class="fil0" d="M3824.07 149.13l492.06 -72.86c58.65,-7.71 121.5,-10.76 176.84,-18.71 144.74,-20.8 399.02,-21.54 538.57,-37.21 55.26,-6.2 135.95,-1.59 193.96,-1.59l-377.26 -18.76 -363.44 27.67c-128.88,14.63 -583.07,71.44 -660.73,121.46z"/>
   <path class="fil0" d="M977.74 7949.36c-8.75,-36.1 -59.28,-143.73 -77.86,-182.87 -20.23,-42.64 -80.26,-118.6 -111.47,-160.12 -33.22,-44.2 -204.71,-306.31 -223.5,-319.7 21.99,90.75 346.46,615.39 412.83,662.7z"/>
   <path class="fil0" d="M3291.74 9687.57c-44.02,-38.84 -113.11,-52.81 -165.14,-84.73 -48.62,-29.82 -117.3,-67.03 -167.99,-92.75 -77.72,-39.43 -275.22,-177.03 -329.57,-191.9 75.22,113.7 528,357.37 662.69,369.37z"/>
   <path class="fil0" d="M358.51 3136.68c0,25.23 13.4,1.61 6.71,0 -0.13,-0.03 -6.71,-28.01 -6.71,0z"/>
   <polygon class="fil0" points="1108.11,8014.54 1105.31,8004.61 1097.3,8010.87 "/>
   <polygon class="fil0" points="2553,9350.79 2555.79,9360.73 2563.81,9354.46 "/>
   <polygon class="fil0" points="5996.83,149.13 5994.04,139.2 5986.02,145.45 "/>
   <polygon class="fil0" points="2270.54,8970.56 2273.33,8980.49 2281.35,8974.23 "/>
   <polygon class="fil0" points="9538.44,7080.25 9548.37,7077.46 9542.12,7069.44 "/>
   <polygon class="fil0" points="2553,9350.79 2550.21,9340.86 2542.19,9347.12 "/>
   <polygon class="fil0" points="2520.4,9329.06 2523.2,9339 2531.22,9332.74 "/>
   <polygon class="fil0" points="977.74,7949.36 980.54,7959.29 988.55,7953.03 "/>
   <polygon class="fil0" points="4812.67,627.13 4822.61,624.34 4816.35,616.32 "/>
   <polygon class="fil0" points="901.7,2137.21 891.76,2140 898.02,2148.02 "/>
   <polygon class="fil0" points="8951.79,8057.99 8941.86,8060.79 8948.12,8068.81 "/>
   <polygon class="fil0" points="2737.69,551.09 2747.61,548.3 2741.35,540.28 "/>
   <polygon class="fil0" points="8321.69,1485.38 8318.9,1475.44 8310.88,1481.7 "/>
   <polygon class="fil0" points="543.19,7243.21 540.4,7233.28 532.38,7239.53 "/>
   <polygon class="fil0" points="2629.04,9318.2 2626.25,9308.27 2618.23,9314.53 "/>
   <path class="fil0" d="M369.37 3114.95c1.05,1.05 3.14,-4.62 3.14,-3.14 0,0.61 1.34,-1.34 1.29,-1.29 -0.26,0.26 -19.03,-10.15 -4.43,4.44z"/>
   <path class="fil0" d="M380.23 3082.36c1.05,1.05 3.14,-4.62 3.14,-3.14 0.01,0.61 1.34,-1.34 1.3,-1.29 -0.26,0.26 -19.03,-10.15 -4.44,4.44z"/>
   <path class="fil0" d="M2759.41 540.22c1.05,1.05 3.14,-4.62 3.14,-3.14 0,0.61 1.34,-1.34 1.29,-1.29 -0.26,0.26 -19.03,-10.15 -4.43,4.44z"/>
   <path class="fil0" d="M869.1 2180.66c1.05,1.05 3.14,-4.62 3.15,-3.14 0,0.61 1.34,-1.34 1.29,-1.29 -0.26,0.26 -19.03,-10.15 -4.44,4.43z"/>
   <path class="fil0" d="M3356.92 9720.16c1.08,1.08 3.24,-4.76 3.24,-3.24l0 0.01c-0.22,0.22 -4.32,2.16 -3.24,3.24z"/>
   <path class="fil0" d="M521.46 7221.48l3.24 -3.23c-0.22,0.21 -4.32,2.15 -3.24,3.23z"/>
   <path class="fil0" d="M988.61 7981.95l3.24 -3.24c-0.22,0.21 -4.32,2.16 -3.24,3.24z"/>
   <path class="fil0" d="M1086.38 7992.81l3.25 -3.23c-0.22,0.21 -4.33,2.15 -3.25,3.23z"/>
   <path class="fil0" d="M3324.33 9709.3l3.24 -3.24c-0.21,0.21 -4.32,2.16 -3.24,3.24z"/>
   <path class="fil0" d="M9560.17 7036.79l3.24 -3.24c-0.22,0.21 -4.33,2.16 -3.24,3.24z"/>
   <path class="fil0" d="M9549.31 7058.53l3.24 -3.24c-0.21,0.22 -4.32,2.16 -3.24,3.24z"/>
   <polygon class="fil0" points="8973.52,8025.4 8962.66,8036.27 "/>
   <polygon class="fil0" points="8951.79,8057.99 8962.66,8036.27 "/>
   <polygon class="fil0" points="912.56,2126.34 901.7,2137.21 "/>
   <polygon class="fil0" points="554.06,7264.93 543.19,7243.21 "/>
   <polygon class="fil0" points="564.91,7286.66 554.06,7264.93 "/>
   <polygon class="fil0" points="9527.58,7101.98 9538.44,7080.25 "/>
   <polygon class="fil0" points="9147.34,7449.62 9136,7469.29 "/>
   <polygon class="fil0" points="6931.12,9589.8 6909.4,9594.85 "/>
   <polygon class="fil0" points="3291.74,9687.57 3311.41,9698.91 "/>
  </g>
 </g>
</svg>
