<?xml version="1.0" encoding="UTF-8"?>
<!DOCTYPE svg PUBLIC "-//W3C//DTD SVG 1.1//EN" "http://www.w3.org/Graphics/SVG/1.1/DTD/svg11.dtd">
<svg xmlns="http://www.w3.org/2000/svg" xml:space="preserve" width="200.352mm" height="207.777mm" version="1.1" style="shape-rendering:geometricPrecision; text-rendering:geometricPrecision; image-rendering:optimizeQuality; fill-rule:evenodd; clip-rule:evenodd"
viewBox="0 0 19238.2 19951.22"
 xmlns:xlink="http://www.w3.org/1999/xlink"
 xmlns:xodm="http://www.axuno.net/logo/odm/2003">
 <defs>
  <style type="text/css">
   <![CDATA[
    .fil0 {fill:#355DA3}
   ]]>
  </style>
 </defs>
 <g id="Layer_x0020_1">
  <metadata id="AxunoID_0Layer"/>
  <path class="fil0" d="M1302.92 10306.88c0,-2006.98 711.02,-3847.74 1894.78,-5284.55 -170.3,-557.71 -280.29,-1076.04 -345.61,-1551.08 -1760.97,1743.24 -2852.08,4161.89 -2852.08,6835.64 0,3646.19 2028.78,6818.35 5018.95,8449.61 491.1,-264.44 923.83,-535.9 1298.34,-815.35 -2950.11,-1277.68 -5014.38,-4214.63 -5014.38,-7634.26z"/>
  <path class="fil0" d="M9619.1 687.71c-1913.27,0 -3695.95,558.7 -5194.05,1521.62 120.44,430.57 275.18,850.76 456.89,1262.27 1344.3,-933.31 2976.61,-1480.89 4737.16,-1480.89 4592.89,0 8316.1,3723.27 8316.1,8316.16 0,3909.92 -2699.07,7187.71 -6335.14,8076.52 2799.88,-2564.96 -623.26,-6247.73 -175.76,-9258.83 407.29,-2740.09 5320.54,-2365.14 5320.54,-2365.14 0,0 -5945.93,-1733.52 -6800.35,1163.61 -647.41,2195.06 854.78,3895.5 1250.44,6997.24 440.75,3455.63 -3233.27,5030.95 -3233.27,5030.95 158.83,-32.22 312,-65.96 460.98,-100.98 392.08,49.04 791.04,75.75 1196.46,75.75 5312.43,0 9619.1,-4306.67 9619.1,-9619.12 0,-5312.51 -4306.67,-9619.16 -9619.1,-9619.16z"/>
  <path class="fil0" d="M3542.72 19249.58c0,0 6233.13,-428.34 6233.27,-4477.65 0.14,-6260.44 -6617.38,-7436.09 -6905.18,-14771.94 0,0 -1718.09,3605.47 2422.64,9052.49 2878.1,3786.1 4952.83,7917.72 -1750.72,10197.09z"/>
  <path class="fil0" d="M6899.96 5582.76c-277.42,711.59 74.35,1512.94 785.72,1790.51 711.46,277.28 1513.02,-74.26 1790.45,-785.86 277.34,-711.37 -74.44,-1513.03 -785.8,-1790.51 -711.37,-277.43 -1513.03,74.57 -1790.37,785.86z"/>
 </g>
</svg>
